PathFileType	4	(X/Y/Z)	D:\TRACE\spot_10-12-23\spot_arm_body_motion_3_4-v60.trc
DataRate	CameraRate	NumFrames	NumMarkers	Units	OrigDataRate	OrigDataStartFrame	OrigNumFrames
100.00	100.00	      38	9	mm	100.00	5251	      7000
Frame#	Time	front left toe			Front right toe			aft left toe			aft right toe			Arm			FL body			FR body			AL Body			AR Body			
		X1	Y1	Z1	X2	Y2	Z2	X3	Y3	Z3	X4	Y4	Z4	X5	Y5	Z5	X6	Y6	Z6	X7	Y7	Z7	X8	Y8	Z8	X9	Y9	Z9	

5251	52.500	-248.47047	62.21824	-393.90356	195.20241	75.90848	-469.55582	-246.89107	12.17262	107.50674	169.15872	-2.04331	213.91779	38.36349	894.53131	-676.47046	-109.55704	652.84302	-485.38779	42.16721	660.09906	-479.93607	-141.17661	557.40692	393.14590	9.02158	558.24994	400.56467	
5252	52.510	-249.06012	62.12722	-393.86697	194.70534	75.67072	-469.60251	-247.74919	12.50599	107.46994	168.69647	-1.95322	213.93927	38.28461	892.45142	-677.15497	-109.28448	652.72430	-484.45886	42.26842	660.07709	-478.95477	-140.65794	556.90112	393.93701	9.25617	557.47803	401.12827	
5253	52.520	-249.58171	61.90928	-393.93167	194.33003	75.25187	-469.72031	-248.34685	12.58832	107.58366	168.15140	-1.91867	214.04346	37.78400	890.50574	-677.85278	-109.33057	652.54028	-483.89877	42.54313	659.81671	-478.34924	-140.58377	556.43335	394.64441	9.34788	557.08838	401.86804	
5254	52.530	-250.11980	61.69005	-394.11441	193.65787	74.67189	-469.83688	-248.81819	12.74804	107.63309	167.31161	-2.03631	213.98976	37.83117	889.12994	-678.74628	-109.23617	652.07452	-483.22015	42.44624	659.34778	-477.98840	-140.25479	556.24188	395.28168	9.82834	556.50989	402.54062	
5255	52.540	-250.66269	61.49748	-394.21783	193.13101	74.21795	-469.91263	-249.08838	12.73259	107.56937	166.85075	-1.93107	213.99104	38.32842	887.97034	-679.51141	-108.89712	651.40057	-482.68359	43.04975	658.43591	-477.27469	-140.25513	555.98785	395.92093	10.04902	556.28931	403.32111	
5256	52.550	-251.08832	61.34885	-394.25003	193.43442	74.19907	-469.24695	-249.63849	12.81367	107.49499	166.28981	-1.80241	213.99384	38.42193	887.29626	-680.04559	-108.46313	650.69250	-482.15857	43.52972	657.67767	-476.72079	-140.38615	555.70605	396.31436	9.86939	555.73273	404.11932	
5257	52.560	-250.88089	60.88035	-394.49417	192.81654	73.35423	-469.89774	-250.42108	12.87567	107.37473	165.81206	-1.44282	214.16087	38.59206	887.15540	-680.37506	-107.97648	650.15466	-481.92966	44.02333	656.72211	-476.27036	-140.70619	555.23840	396.64685	9.28192	555.44513	404.16306	
5258	52.570	-251.75766	60.99658	-394.66019	190.46135	71.65714	-470.55942	-250.98842	12.87902	107.38478	165.33173	-1.57466	214.04500	38.65911	887.27655	-680.53375	-107.65865	649.64783	-481.62177	44.83388	656.12323	-475.83051	-140.75693	554.87604	397.27960	9.15846	554.63684	404.77072	
5259	52.580	-252.00591	60.87648	-394.71909	190.43546	71.11920	-470.42123	-251.37289	12.92448	107.26880	164.78122	-1.58323	214.12505	38.40842	887.70233	-680.70911	-106.51417	648.96838	-480.99207	45.30058	655.69666	-475.05548	-141.08463	554.05341	397.63638	8.95715	553.93872	405.16278	
5260	52.590	-252.35922	60.74082	-394.85150	190.01262	70.59054	-470.46597	-251.69334	12.91597	107.18684	164.38489	-1.48601	214.12073	37.93716	888.24304	-680.91901	-105.96372	648.55865	-480.45142	46.06416	654.68195	-474.15997	-141.26704	553.34058	397.95877	8.60623	553.12231	405.77560	
5261	52.600	-252.60367	60.49371	-394.90656	189.76544	70.08149	-470.46704	-252.14395	12.97305	107.08941	163.92276	-1.34928	214.12881	37.17585	889.15857	-680.84814	-105.60141	648.28131	-480.11279	46.02187	654.89648	-474.35388	-141.47511	552.67267	398.31970	8.66448	552.25635	406.69177	
5262	52.610	-253.05191	60.27839	-395.11743	189.35454	69.59792	-470.57513	-252.58551	13.12859	106.97002	163.38120	-1.10885	214.24265	36.66580	889.71497	-680.80798	-105.09034	647.91827	-479.54428	46.61029	654.13055	-473.44064	-141.75868	551.71448	398.58441	8.45320	551.07776	406.68869	
5263	52.620	-253.28848	60.07507	-395.31104	189.02834	69.09501	-470.75076	-252.86378	13.24833	106.97895	163.27327	-0.87196	214.25180	35.55862	890.46887	-680.55499	-104.90835	647.70593	-479.13852	46.53406	653.85547	-472.79526	-142.47478	550.49902	399.19473	8.44920	550.24115	407.37198	
5264	52.630	-253.35153	59.84645	-395.39911	188.73189	68.78127	-470.95685	-253.05113	13.33403	106.97493	163.19841	-0.88972	214.11273	34.96579	890.90979	-680.50470	-104.88278	647.62543	-478.60056	46.48084	653.59705	-472.28098	-142.44977	549.54041	399.56412	8.63340	548.89185	407.63733	
5265	52.640	-253.53696	59.31301	-395.40228	188.51772	68.53368	-471.14594	-253.19382	13.54675	107.00734	163.01947	-0.85943	214.06427	34.07716	891.43951	-680.53821	-104.89493	647.43781	-477.92072	46.92548	653.41193	-471.69122	-141.89842	548.50482	400.30466	8.78450	548.05005	408.12439	
5266	52.650	-253.78477	59.06615	-395.31607	188.26294	68.27459	-471.28806	-253.31595	13.65356	106.95355	162.98558	-0.41719	214.26793	33.64289	891.67804	-680.46979	-104.90115	647.10852	-477.21634	46.75800	653.26453	-471.17966	-141.48289	547.54834	400.72144	8.73007	546.75140	408.41800	
5267	52.660	-254.05312	58.47783	-395.49750	187.96161	67.68549	-471.59607	-253.42723	13.78823	107.00679	162.77631	-0.31360	214.25839	32.72283	891.98755	-680.20947	-105.29627	647.03326	-476.90216	45.62873	653.00989	-470.82803	-141.19612	546.37494	401.20004	10.48257	545.61975	409.41858	
5268	52.670	-254.26299	58.13959	-395.57144	188.04172	67.15945	-471.75879	-253.32199	13.89799	107.04031	162.69356	-0.16314	214.23434	32.05466	891.97467	-679.94690	-105.82448	646.60632	-476.21262	44.94400	652.80688	-470.54892	-140.78870	545.42480	401.69867	9.43214	544.70221	409.39221	
5269	52.680	-254.44380	57.79796	-395.83035	189.46454	68.62969	-471.54703	-253.35068	13.97573	107.08614	162.47153	-0.36175	213.92581	31.62289	891.88049	-679.82452	-106.28570	646.05310	-475.63528	44.50100	652.33832	-470.03485	-140.59186	544.19891	402.27374	10.23231	543.50348	410.11505	
5270	52.690	-254.66789	57.51298	-395.95114	189.26297	67.66141	-472.13321	-253.60863	13.98352	107.12159	162.33540	-0.19237	213.79651	31.30612	891.51025	-679.88647	-106.69638	645.69055	-475.24088	44.33277	651.80286	-469.46280	-140.58534	543.14893	402.59808	9.72926	542.37866	410.09866	
5271	52.700	-253.80423	62.22155	-393.76456	188.51717	65.90035	-472.87915	-253.67490	13.57798	106.87157	162.30907	0.20417	214.10553	31.14926	891.36713	-679.79382	-107.12030	645.11346	-474.76389	44.13483	651.34558	-469.10696	-140.73186	541.62451	402.99988	9.90784	541.11438	410.48111	
5272	52.710	-251.65131	73.30383	-388.77698	188.78520	65.60486	-472.60248	-253.75560	13.68692	106.92979	162.40768	0.30123	214.20796	31.13058	891.17303	-679.74072	-107.38646	644.29871	-474.68530	43.91157	651.01306	-468.88782	-141.19196	540.15051	403.06131	9.28729	539.78778	410.67645	
5273	52.720	-251.15697	85.48681	-383.09406	189.31499	66.11847	-472.82932	-253.72049	13.72323	106.76183	162.26289	0.70889	213.89639	30.84769	890.91632	-679.58966	-107.69252	643.43408	-474.58655	43.62917	650.32727	-468.53180	-141.71590	539.03723	403.07040	8.65148	538.96429	410.48450	
5274	52.730	-251.59830	100.71179	-380.69855	189.26823	64.98119	-472.21655	-253.97368	13.84357	106.88026	161.93996	1.20855	214.06921	30.35845	890.65601	-679.50964	-108.14369	642.36279	-474.35312	43.00975	649.06342	-468.04755	-142.33459	538.08496	403.31766	8.52403	537.90460	411.03745	
5275	52.740	-253.19742	120.09278	-382.22971	187.50734	62.60218	-473.18118	-254.08490	13.87370	106.75298	161.82703	1.31121	213.88084	29.61751	890.30432	-679.57190	-108.87506	641.32227	-474.15387	42.38997	648.40643	-468.26385	-142.26491	536.98993	403.38004	8.21564	537.24957	410.65659	
5276	52.750	-253.54285	143.00539	-385.17700	187.21579	62.02755	-473.40152	-254.26602	14.00315	106.75079	161.82118	1.47196	213.70705	29.04216	890.17108	-679.60480	-109.75265	640.40765	-473.92828	41.55794	647.33978	-468.19882	-143.23256	536.25848	403.60675	7.18171	536.17822	411.36380	
5277	52.760	-252.77979	167.65160	-387.49799	186.92804	61.45595	-473.70065	-254.32928	13.90701	106.75362	161.75227	1.57348	213.61639	28.37020	889.92902	-679.80872	-110.53969	639.54584	-473.65964	40.44643	646.67023	-468.14893	-143.88986	535.25018	403.91827	6.45085	535.21143	411.29492	
5278	52.770	-252.74654	192.59778	-388.44513	186.91675	60.92495	-474.05161	-254.38264	13.89154	106.77406	161.52574	1.79338	213.44838	27.60140	889.64001	-679.79785	-111.41427	638.68964	-473.49527	39.73412	645.72723	-467.96161	-144.66039	534.22681	404.07831	6.11514	534.16504	411.72263	
5279	52.780	-253.06836	213.46579	-388.94586	188.46011	62.09423	-473.98111	-254.56404	14.06880	106.66542	161.24400	2.28898	213.41069	27.45471	889.37708	-679.84375	-112.55966	638.02924	-473.18994	38.89981	645.27667	-467.89426	-145.31488	533.19922	404.25809	4.91095	533.25726	411.62839	
5280	52.790	-253.78957	229.76379	-389.85583	188.15971	61.55611	-474.26797	-254.67249	14.21738	106.63695	161.18167	2.52851	213.35150	27.10877	889.22974	-679.74188	-113.58339	637.40057	-472.94809	37.86219	644.52063	-467.42331	-146.16325	532.36072	404.52298	4.43028	532.35187	412.36200	
5281	52.800	-253.66093	242.21120	-389.76718	188.17007	61.62264	-474.01758	-254.65646	14.29897	106.57793	161.28159	2.85685	213.15488	26.91917	889.09851	-679.70563	-114.86752	636.93823	-472.62009	37.19206	644.10535	-467.00623	-147.27510	531.51373	404.74246	3.23119	531.57483	412.17084	
5282	52.810	-253.22386	251.57999	-389.20776	188.05809	60.64679	-474.86890	-254.77727	14.27990	106.45502	161.42587	3.21707	213.09525	26.81861	889.05341	-679.57672	-116.09028	636.34680	-472.51895	35.96597	643.38855	-466.75983	-148.34436	530.56476	405.08102	2.12420	530.93286	412.08707	
5283	52.820	-252.85939	258.24484	-388.07095	188.08672	59.80763	-475.18945	-255.00601	14.42608	106.22895	161.35844	3.54452	212.99086	26.62588	888.95160	-679.65973	-116.90856	635.79425	-472.39322	34.85773	642.95105	-466.64343	-149.61981	529.91589	405.14948	0.83859	530.08270	412.77237	
5284	52.830	-253.45996	263.21152	-385.88824	187.74348	59.86381	-474.92535	-254.92197	14.69553	105.89838	161.23831	3.94733	212.90804	26.43169	888.98596	-679.72498	-117.94231	634.89685	-472.21442	33.98063	642.54132	-466.43884	-151.24179	529.16919	405.31232	-0.93255	529.76233	412.58139	
5285	52.840	-255.07912	262.89273	-381.50644	187.99139	59.29628	-475.34842	-254.91122	14.79237	105.67537	161.08078	4.38859	212.72997	25.83686	889.40698	-679.30585	-118.71002	634.10248	-472.01788	32.87605	641.44421	-466.08032	-152.91364	528.82507	405.35529	-2.68291	529.34155	413.07217	
5286	52.850	-257.82294	257.61252	-375.81012	188.72612	57.46232	-475.54538	-255.05022	14.76266	105.47827	160.89507	4.65919	212.63113	25.24497	890.62793	-678.70721	-119.83702	632.95227	-472.06760	31.93667	640.52313	-466.31967	-154.65254	528.48651	405.33212	-4.27953	529.02612	413.18552	
5287	52.860	-260.49750	247.28346	-369.11203	188.39157	56.63430	-475.83640	-255.21555	14.61585	105.40440	160.76810	5.22573	212.58217	23.44169	892.46417	-677.08630	-121.49886	632.34863	-472.20572	30.77186	639.17792	-466.02963	-156.51109	528.39655	405.56967	-6.00658	528.48737	413.39212	
5288	52.870	-262.85184	231.87209	-362.76138	188.12846	55.79850	-475.67593	-255.46327	14.34445	105.33890	160.60896	5.54971	212.49696	22.80153	894.32727	-675.06036	-122.78215	631.69708	-472.01657	29.22477	638.74915	-466.18622	-157.80753	527.82452	405.45245	-7.53678	527.74689	413.21191	
